<svg width="48" height="48" viewBox="0 0 48 48" fill="none" xmlns="http://www.w3.org/2000/svg">
<path d="M30 14H18C14.4 14 12 15.8 12 20V28.4C12 32.6 14.4 34.4 18 34.4H30C33.6 34.4 36 32.6 36 28.4V20C36 15.8 33.6 14 30 14ZM30.564 21.308L26.808 24.308C26.016 24.944 25.008 25.256 24 25.256C22.992 25.256 21.972 24.944 21.192 24.308L17.436 21.308C17.052 20.996 16.992 20.42 17.292 20.036C17.604 19.652 18.168 19.58 18.552 19.892L22.308 22.892C23.22 23.624 24.768 23.624 25.68 22.892L29.436 19.892C29.82 19.58 30.396 19.64 30.696 20.036C31.008 20.42 30.948 20.996 30.564 21.308Z" fill="#008080"/>
<circle cx="24" cy="24" r="23.5" fill="#D9D9D9" fill-opacity="0.05" stroke="#008080"/>
</svg>
