<svg width="50" height="50" viewBox="0 0 50 50" fill="none" xmlns="http://www.w3.org/2000/svg">
<rect width="50" height="50" rx="10" fill="#D9D9D9" fill-opacity="0.2"/>
<path d="M38.2569 22.5519H37.25V22.5H26V27.5H33.0644C32.0338 30.4106 29.2644 32.5 26 32.5C21.8581 32.5 18.5 29.1419 18.5 25C18.5 20.8581 21.8581 17.5 26 17.5C27.9119 17.5 29.6513 18.2212 30.9756 19.3994L34.5112 15.8637C32.2787 13.7831 29.2925 12.5 26 12.5C19.0969 12.5 13.5 18.0969 13.5 25C13.5 31.9031 19.0969 37.5 26 37.5C32.9031 37.5 38.5 31.9031 38.5 25C38.5 24.1619 38.4137 23.3438 38.2569 22.5519Z" fill="#FFC107"/>
<path d="M14.9414 19.1819L19.0483 22.1938C20.1595 19.4425 22.8508 17.5 26.0002 17.5C27.912 17.5 29.6514 18.2212 30.9758 19.3994L34.5114 15.8637C32.2789 13.7831 29.2927 12.5 26.0002 12.5C21.1989 12.5 17.0352 15.2106 14.9414 19.1819Z" fill="#FF3D00"/>
<path d="M25.9992 37.4999C29.228 37.4999 32.1617 36.2643 34.3798 34.2549L30.5111 30.9812C29.2139 31.9677 27.6289 32.5012 25.9992 32.4999C22.748 32.4999 19.9873 30.4268 18.9473 27.5337L14.8711 30.6743C16.9398 34.7224 21.1411 37.4999 25.9992 37.4999Z" fill="#4CAF50"/>
<path d="M38.2569 22.5519H37.25V22.5H26V27.5H33.0644C32.5714 28.8853 31.6833 30.0957 30.51 30.9819L30.5119 30.9806L34.3806 34.2544C34.1069 34.5031 38.5 31.25 38.5 25C38.5 24.1619 38.4137 23.3438 38.2569 22.5519Z" fill="#1976D2"/>
</svg>
