<svg width="50" height="50" viewBox="0 0 50 50" fill="none" xmlns="http://www.w3.org/2000/svg">
<rect width="50" height="50" rx="10" fill="#D9D9D9" fill-opacity="0.2"/>
<path d="M32.9966 36.9167C31.4459 38.3416 29.7527 38.1166 28.1229 37.4417C26.3981 36.7517 24.8157 36.7218 22.996 37.4417C20.7174 38.3715 19.5148 38.1016 18.1539 36.9167C10.4319 29.3727 11.5712 17.8841 20.3376 17.4642C22.4738 17.5692 23.9612 18.574 25.2113 18.664C27.0785 18.3041 28.8666 17.2692 30.8604 17.4042C33.2498 17.5842 35.0537 18.4841 36.2405 20.1039C31.3035 22.9085 32.4744 29.0727 37 30.7975C36.098 33.0472 34.9271 35.2819 32.9808 36.9317L32.9966 36.9167ZM25.0531 17.3742C24.8157 14.0296 27.6798 11.27 30.9712 11C31.43 14.8695 27.2684 17.7491 25.0531 17.3742Z" fill="black" fill-opacity="0.85"/>
</svg>
