<svg width="48" height="48" viewBox="0 0 48 48" fill="none" xmlns="http://www.w3.org/2000/svg">
<g id="Frame 427321206">
<circle id="Ellipse 437" cx="24" cy="24" r="23.5" fill="#D9D9D9" fill-opacity="0.05" stroke="#008080"/>
<path id="Vector" d="M31 10H17C16.4696 10 15.9609 10.2107 15.5858 10.5858C15.2107 10.9609 15 11.4696 15 12V36C15 36.5304 15.2107 37.0391 15.5858 37.4142C15.9609 37.7893 16.4696 38 17 38H31C31.5304 38 32.0391 37.7893 32.4142 37.4142C32.7893 37.0391 33 36.5304 33 36V12C33 11.4696 32.7893 10.9609 32.4142 10.5858C32.0391 10.2107 31.5304 10 31 10ZM25 36H23V34H25V36ZM17 32V12H31V32H17Z" fill="#008080"/>
</g>
</svg>
