<svg width="24" height="24" viewBox="0 0 24 24" fill="none" xmlns="http://www.w3.org/2000/svg">
<g id="&#240;&#159;&#166;&#134; icon &#34;eye slash&#34;">
<g id="Group">
<path id="Vector" d="M23.1136 8.60526C22.7657 8.05352 22.3939 7.53776 22.0101 7.05798C21.5663 6.49425 20.7267 6.44627 20.2229 6.95003L16.6246 10.5483C16.8885 11.3399 16.9365 12.2515 16.6966 13.1991C16.2768 14.8903 14.9094 16.2576 13.2182 16.6774C12.2706 16.9173 11.3591 16.8693 10.5674 16.6054C10.5674 16.6054 8.85226 18.3206 7.61684 19.5561C7.01713 20.1558 7.20904 21.2113 8.01266 21.5231C9.29606 22.0149 10.6274 22.2668 11.9948 22.2668C14.1298 22.2668 16.2048 21.6431 18.0999 20.4796C20.031 19.2802 21.7702 17.517 23.1735 15.2741C24.313 13.4629 24.253 10.4164 23.1136 8.60526Z" fill="#292D32"/>
<path id="Vector_2" d="M14.4196 9.56759L9.57393 14.4133C8.96222 13.7896 8.56641 12.926 8.56641 11.9904C8.56641 10.1073 10.1017 8.56006 11.9968 8.56006C12.9323 8.56006 13.7959 8.95587 14.4196 9.56759Z" fill="#292D32"/>
<path id="Vector_3" d="M19.4908 4.49278L15.4248 8.55887C14.5492 7.67128 13.3377 7.14353 11.9944 7.14353C9.30763 7.14353 7.14864 9.31451 7.14864 11.9893C7.14864 13.3326 7.68839 14.5441 8.56398 15.4197L4.50988 19.4857H4.49789C3.16651 18.4063 1.94309 17.0269 0.899577 15.3957C-0.299859 13.5125 -0.299859 10.454 0.899577 8.57086C2.29092 6.38789 3.99412 4.67269 5.88923 3.49724C7.78434 2.34578 9.85937 1.71008 11.9944 1.71008C14.6691 1.71008 17.2599 2.69362 19.4908 4.49278Z" fill="#292D32"/>
<path id="Vector_4" d="M15.4234 11.9874C15.4234 13.8705 13.8881 15.4178 11.993 15.4178C11.921 15.4178 11.861 15.4178 11.7891 15.3938L15.3994 11.7835C15.4234 11.8555 15.4234 11.9154 15.4234 11.9874Z" fill="#292D32"/>
<path id="Vector_5" d="M23.7108 0.269873C23.3509 -0.0899577 22.7632 -0.0899577 22.4034 0.269873L0.27378 22.4115C-0.0860515 22.7713 -0.0860515 23.359 0.27378 23.7188C0.453695 23.8868 0.681588 23.9827 0.921475 23.9827C1.16136 23.9827 1.38926 23.8868 1.56917 23.7069L23.7108 1.56526C24.0826 1.20543 24.0826 0.629704 23.7108 0.269873Z" fill="#292D32"/>
</g>
</g>
</svg>
