<svg width="24" height="21" viewBox="0 0 24 21" fill="none" xmlns="http://www.w3.org/2000/svg">
<g id="&#240;&#159;&#166;&#134; icon &#34;sms&#34;">
<path id="Vector" d="M18 0H6C2.4 0 0 1.8 0 6V14.4C0 18.6 2.4 20.4 6 20.4H18C21.6 20.4 24 18.6 24 14.4V6C24 1.8 21.6 0 18 0ZM18.564 7.308L14.808 10.308C14.016 10.944 13.008 11.256 12 11.256C10.992 11.256 9.972 10.944 9.192 10.308L5.436 7.308C5.052 6.996 4.992 6.42 5.292 6.036C5.604 5.652 6.168 5.58 6.552 5.892L10.308 8.892C11.22 9.624 12.768 9.624 13.68 8.892L17.436 5.892C17.82 5.58 18.396 5.64 18.696 6.036C19.008 6.42 18.948 6.996 18.564 7.308Z" fill="#B3B7BC"/>
</g>
</svg>
