<svg width="24" height="21" viewBox="0 0 24 21" fill="none" xmlns="http://www.w3.org/2000/svg">
<g id="Frame 427321210">
<g id="&#240;&#159;&#166;&#134; icon &#34;eye&#34;">
<g id="Group">
<path id="Vector" d="M23.1 6.864C20.328 2.508 16.272 0 12 0C9.864 0 7.788 0.624 5.892 1.788C3.996 2.964 2.292 4.68 0.9 6.864C-0.3 8.74801 -0.3 11.808 0.9 13.692C3.672 18.06 7.728 20.556 12 20.556C14.136 20.556 16.212 19.932 18.108 18.768C20.004 17.592 21.708 15.876 23.1 13.692C24.3 11.82 24.3 8.74801 23.1 6.864ZM12 15.132C9.312 15.132 7.152 12.96 7.152 10.284C7.152 7.608 9.312 5.436 12 5.436C14.688 5.436 16.848 7.608 16.848 10.284C16.848 12.96 14.688 15.132 12 15.132Z" fill="#292D32"/>
<path id="Vector_2" d="M11.9981 6.85303C10.1141 6.85303 8.57812 8.389 8.57812 10.285C8.57812 12.169 10.1141 13.705 11.9981 13.705C13.8821 13.705 15.4301 12.169 15.4301 10.285C15.4301 8.401 13.8821 6.85303 11.9981 6.85303Z" fill="#292D32"/>
</g>
</g>
</g>
</svg>
